<?xml version="1.0" encoding="UTF-8" standalone="no"?>
<!-- Created with Inkscape (http://www.inkscape.org/) -->

<svg
   width="220mm"
   height="170mm"
   viewBox="0 0 220 170"
   version="1.1"
   id="svg5"
   inkscape:version="1.1.2 (0a00cf5339, 2022-02-04)"
   sodipodi:docname="drawing.svg"
   inkscape:export-filename="/media/littlecube/Data/TFCIS/2023Pre/pC/statement/drawing.jpg"
   inkscape:export-xdpi="300"
   inkscape:export-ydpi="300"
   xmlns:inkscape="http://www.inkscape.org/namespaces/inkscape"
   xmlns:sodipodi="http://sodipodi.sourceforge.net/DTD/sodipodi-0.dtd"
   xmlns="http://www.w3.org/2000/svg"
   xmlns:svg="http://www.w3.org/2000/svg">
  <sodipodi:namedview
     id="namedview7"
     pagecolor="#ffffff"
     bordercolor="#666666"
     borderopacity="1.0"
     inkscape:pageshadow="2"
     inkscape:pageopacity="0.0"
     inkscape:pagecheckerboard="0"
     inkscape:document-units="mm"
     showgrid="false"
     inkscape:zoom="1.0023039"
     inkscape:cx="434.49895"
     inkscape:cy="425.51964"
     inkscape:window-width="1858"
     inkscape:window-height="1016"
     inkscape:window-x="62"
     inkscape:window-y="27"
     inkscape:window-maximized="1"
     inkscape:current-layer="layer1"
     height="50mm"
     width="150mm" />
  <defs
     id="defs2">
    <rect
       x="29.027157"
       y="50.464596"
       width="203.36844"
       height="130.32103"
       id="rect29571" />
    <rect
       x="99.747253"
       y="90.240906"
       width="262.85349"
       height="55.197765"
       id="rect2818" />
    <rect
       x="360.72797"
       y="-124.01832"
       width="212.9989"
       height="81.861214"
       id="rect8241" />
    <rect
       x="360.72797"
       y="-124.01832"
       width="212.9989"
       height="81.861214"
       id="rect12765" />
    <filter
       id="mask-powermask-path-effect52820_inverse"
       inkscape:label="filtermask-powermask-path-effect52820"
       style="color-interpolation-filters:sRGB"
       height="100"
       width="100"
       x="-50"
       y="-50">
      <feColorMatrix
         id="mask-powermask-path-effect52820_primitive1"
         values="1"
         type="saturate"
         result="fbSourceGraphic" />
      <feColorMatrix
         id="mask-powermask-path-effect52820_primitive2"
         values="-1 0 0 0 1 0 -1 0 0 1 0 0 -1 0 1 0 0 0 1 0 "
         in="fbSourceGraphic" />
    </filter>
  </defs>
  <g
     inkscape:label="Layer 1"
     inkscape:groupmode="layer"
     id="layer1">
    <path
       id="rect6991"
       style="fill:#80bfff;fill-opacity:0.6;fill-rule:evenodd;stroke:#000000;stroke-linecap:round;stroke-linejoin:round"
       d="M 58.647737,121 H 39.647739 c -9.320587,6.52245 -10.031972,31.19671 0,39 h 18.999998 c -10.714141,-7.89147 -9.98856,-31.45093 0,-39 z"
       sodipodi:nodetypes="ccccc" />
    <path
       id="rect1465"
       style="fill:#0080ff;fill-opacity:0.5;fill-rule:evenodd;stroke:#000000;stroke-linecap:round;stroke-linejoin:round"
       d="m 10.5,98.023987 c 16.337296,-9.182562 61.086063,-9.554774 79,0 V 84.023988 c -17.049098,-7.678664 -62.624833,-7.869514 -79,0 z"
       sodipodi:nodetypes="ccccc" />
    <text
       xml:space="preserve"
       transform="scale(0.26458333)"
       id="text2816"
       style="font-style:normal;font-weight:normal;font-size:64px;line-height:1.25;font-family:sans-serif;white-space:pre;shape-inside:url(#rect2818);fill:#000000;fill-opacity:1;stroke:none"><tspan
         x="99.748047"
         y="209.75945"
         id="tspan14246"><tspan
           dx="0 14.000008 14.000008 14.000008 14.000008 14.000008"
           style="font-size:26.6667px;font-family:'Latin Modern Mono';-inkscape-font-specification:'Latin Modern Mono'"
           id="tspan14244">bpqddq</tspan></tspan></text>
    <text
       xml:space="preserve"
       transform="scale(0.26458333)"
       id="text29569"
       style="font-style:normal;font-variant:normal;font-weight:normal;font-stretch:normal;font-size:40px;line-height:1.25;font-family:'Latin Modern Roman';-inkscape-font-specification:'Latin Modern Roman, ';white-space:pre;shape-inside:url(#rect29571);fill:#000000;fill-opacity:1;stroke:none" />
    <path
       id="path53978"
       style="fill:none;fill-opacity:0.5;stroke:#000000;stroke-width:1;stroke-miterlimit:4;stroke-dasharray:none"
       d="m 25.118813,38.065549 a 24.999999,24.999999 0 0 1 0.01516,-0.150259" />
    <path
       id="circle52096"
       style="fill:#0080ff;fill-opacity:0.5;fill-rule:evenodd;stroke:#000000;stroke-width:1;stroke-linecap:round;stroke-linejoin:round;stroke-miterlimit:4;stroke-dasharray:none;stroke-opacity:1"
       d="m 31.252597,33.5333 -6.118624,4.38199 -3.616229,-6.836602 A 30,30 0 0 1 49.999998,10.5 a 30,30 0 0 1 30.000001,30 v 0 A 30,30 0 0 1 49.999998,70.5 30,30 0 0 1 21.69491,50.44092 l 7.774677,4.324498 1.924667,-6.928783 M 31.252597,33.5333 A 19.999999,19.999999 0 0 1 49.999998,20.5 19.999999,19.999999 0 0 1 70,40.5 v 0 A 19.999999,19.999999 0 0 1 49.999998,60.499999 19.999999,19.999999 0 0 1 31.394254,47.836635" />
    <path
       style="fill:none;stroke:#000000;stroke-width:1;stroke-linecap:round;stroke-linejoin:round;stroke-miterlimit:4;stroke-dasharray:none;stroke-opacity:1"
       d="m 95,35.500001 v 10 h 15 v 5 l 15,-10 -15,-10 v 5 z"
       id="path57428"
       sodipodi:nodetypes="cccccccc" />
    <g
       id="g58041"
       transform="translate(-0.7588737)" />
    <g
       id="g80104"
       transform="translate(15,25.500001)">
      <rect
         style="fill:#ffffff;fill-opacity:0.7;stroke:#000000;stroke-width:1;stroke-miterlimit:4;stroke-dasharray:none"
         id="rect996"
         width="69"
         height="28.999998"
         x="0.5"
         y="0.50000024" />
      <g
         aria-label="bpqddq"
         id="text77079"
         style="font-size:16.9333px;line-height:1.25;stroke-width:0.264583">
        <path
           d="m 12.207859,11.901205 q 0.254,-0.152399 0.728132,-0.304799 0.491066,-0.169333 1.083731,-0.169333 0.795865,0 1.422398,0.304799 0.626532,0.3048 1.049864,0.846665 0.440266,0.541866 0.660399,1.303864 0.237066,0.745066 0.237066,1.659464 0,0.948265 -0.270933,1.710263 -0.270933,0.761999 -0.761998,1.303864 -0.491066,0.524932 -1.185331,0.812799 -0.694266,0.287866 -1.540931,0.287866 -0.931331,0 -1.659463,-0.135467 -0.728132,-0.135466 -1.168398,-0.270933 V 7.9726796 l 1.405464,-0.2370662 z m 0,6.349988 q 0.321733,0.08467 0.643466,0.135466 0.321732,0.03387 0.609598,0.03387 1.168398,0 1.828797,-0.711199 0.660399,-0.728132 0.660399,-2.167462 0,-0.609599 -0.118534,-1.134531 -0.118533,-0.541866 -0.372532,-0.914399 -0.254,-0.389465 -0.660399,-0.609598 -0.389466,-0.220133 -0.948265,-0.220133 -0.491065,0 -0.948264,0.203199 -0.4572,0.186267 -0.694266,0.4064 z"
           style="font-family:'Ubuntu Mono';-inkscape-font-specification:'Ubuntu Mono'"
           id="path80065" />
        <path
           d="m 24.416736,15.558798 q 0,-1.371597 -0.643465,-2.116662 -0.643466,-0.761999 -1.676397,-0.761999 -0.575732,0 -0.914398,0.0508 -0.321733,0.0508 -0.507999,0.118533 v 4.961457 q 0.237066,0.220133 0.694265,0.406399 0.457199,0.186266 0.948265,0.186266 0.558799,0 0.948265,-0.220132 0.406399,-0.220133 0.660398,-0.592666 0.254,-0.389466 0.372533,-0.897465 0.118533,-0.524932 0.118533,-1.134531 z m 1.439331,0 q 0,0.897465 -0.237067,1.659463 -0.220132,0.745066 -0.660398,1.286931 -0.423333,0.541866 -1.049865,0.846665 -0.626532,0.3048 -1.422397,0.3048 -0.626532,0 -1.100665,-0.1524 -0.474132,-0.1524 -0.711198,-0.338666 v 3.098794 h -1.405464 v -10.41398 q 0.457199,-0.135466 1.168398,-0.270932 0.728132,-0.135467 1.659463,-0.135467 0.846665,0 1.54093,0.287866 0.694266,0.287866 1.185331,0.829732 0.491066,0.524932 0.761999,1.286931 0.270933,0.761998 0.270933,1.710263 z"
           style="font-family:'Ubuntu Mono';-inkscape-font-specification:'Ubuntu Mono'"
           id="path80067" />
        <path
           d="m 28.650029,15.558798 q 0,0.609599 0.118533,1.134531 0.135466,0.507999 0.389466,0.897465 0.253999,0.372533 0.643465,0.592666 0.406399,0.220132 0.965198,0.220132 0.491066,0 0.948265,-0.186266 0.457199,-0.186266 0.694265,-0.406399 V 12.84947 q -0.186266,-0.06773 -0.524932,-0.118533 -0.321733,-0.0508 -0.897465,-0.0508 -1.032931,0 -1.69333,0.761999 -0.643465,0.745065 -0.643465,2.116662 z m -1.439331,0 q 0,-0.948265 0.270933,-1.710263 0.270933,-0.761999 0.761999,-1.286931 0.491065,-0.541866 1.185331,-0.829732 0.711198,-0.287866 1.557863,-0.287866 0.914398,0 1.608664,0.1524 0.711198,0.135466 1.202264,0.270933 v 10.397046 h -1.405464 v -3.098794 q -0.253999,0.169333 -0.728132,0.321733 -0.474132,0.169333 -1.066798,0.169333 -0.795865,0 -1.422397,-0.3048 -0.626532,-0.304799 -1.066798,-0.846665 -0.423332,-0.541865 -0.660399,-1.286931 -0.237066,-0.761998 -0.237066,-1.659463 z"
           style="font-family:'Ubuntu Mono';-inkscape-font-specification:'Ubuntu Mono'"
           id="path80069" />
        <path
           d="m 40.858906,13.272803 q -0.237067,-0.220133 -0.694266,-0.4064 -0.457199,-0.203199 -0.948265,-0.203199 -0.558798,0 -0.965198,0.220133 -0.389466,0.220133 -0.643465,0.609598 -0.254,0.372533 -0.372533,0.914399 -0.118533,0.524932 -0.118533,1.134531 0,1.371597 0.643466,2.116662 0.643465,0.745065 1.676396,0.745065 0.524933,0 0.880532,-0.0508 0.372533,-0.0508 0.541866,-0.1016 z m 0,-5.3001234 1.405463,-0.2370662 V 19.250257 q -0.457199,0.135467 -1.168397,0.270933 -0.711199,0.135467 -1.659464,0.135467 -0.846665,0 -1.54093,-0.287866 -0.694265,-0.287867 -1.185331,-0.812799 -0.491066,-0.541865 -0.761998,-1.303864 -0.270933,-0.761998 -0.270933,-1.710263 0,-0.914398 0.220133,-1.659464 0.237066,-0.761998 0.677332,-1.303864 0.440265,-0.541865 1.049864,-0.846665 0.626532,-0.304799 1.422397,-0.304799 0.626533,0 1.100665,0.1524 0.474132,0.152399 0.711199,0.321732 z"
           style="font-family:'Ubuntu Mono';-inkscape-font-specification:'Ubuntu Mono'"
           id="path80071" />
        <path
           d="m 49.325523,13.272803 q -0.237066,-0.220133 -0.694265,-0.4064 -0.457199,-0.203199 -0.948265,-0.203199 -0.558799,0 -0.965198,0.220133 -0.389466,0.220133 -0.643465,0.609598 -0.254,0.372533 -0.372533,0.914399 -0.118533,0.524932 -0.118533,1.134531 0,1.371597 0.643465,2.116662 0.643466,0.745065 1.676397,0.745065 0.524932,0 0.880532,-0.0508 0.372532,-0.0508 0.541865,-0.1016 z m 0,-5.3001234 1.405464,-0.2370662 V 19.250257 q -0.457199,0.135467 -1.168398,0.270933 -0.711198,0.135467 -1.659463,0.135467 -0.846665,0 -1.54093,-0.287866 -0.694266,-0.287867 -1.185331,-0.812799 -0.491066,-0.541865 -0.761999,-1.303864 -0.270933,-0.761998 -0.270933,-1.710263 0,-0.914398 0.220133,-1.659464 0.237066,-0.761998 0.677332,-1.303864 0.440266,-0.541865 1.049865,-0.846665 0.626532,-0.304799 1.422397,-0.304799 0.626532,0 1.100665,0.1524 0.474132,0.152399 0.711198,0.321732 z"
           style="font-family:'Ubuntu Mono';-inkscape-font-specification:'Ubuntu Mono'"
           id="path80073" />
        <path
           d="m 54.049881,15.558798 q 0,0.609599 0.118534,1.134531 0.135466,0.507999 0.389465,0.897465 0.254,0.372533 0.643466,0.592666 0.406399,0.220132 0.965198,0.220132 0.491066,0 0.948265,-0.186266 0.457199,-0.186266 0.694265,-0.406399 V 12.84947 q -0.186266,-0.06773 -0.524932,-0.118533 -0.321733,-0.0508 -0.897465,-0.0508 -1.032931,0 -1.69333,0.761999 -0.643466,0.745065 -0.643466,2.116662 z m -1.43933,0 q 0,-0.948265 0.270933,-1.710263 0.270933,-0.761999 0.761998,-1.286931 0.491066,-0.541866 1.185331,-0.829732 0.711199,-0.287866 1.557864,-0.287866 0.914398,0 1.608663,0.1524 0.711199,0.135466 1.202265,0.270933 v 10.397046 h -1.405464 v -3.098794 q -0.254,0.169333 -0.728132,0.321733 -0.474133,0.169333 -1.066798,0.169333 -0.795865,0 -1.422397,-0.3048 -0.626532,-0.304799 -1.066798,-0.846665 -0.423333,-0.541865 -0.660399,-1.286931 -0.237066,-0.761998 -0.237066,-1.659463 z"
           style="font-family:'Ubuntu Mono';-inkscape-font-specification:'Ubuntu Mono'"
           id="path80075" />
      </g>
    </g>
    <g
       id="g80152"
       transform="rotate(180,102.5,27.75)">
      <rect
         style="fill:#ffffff;fill-opacity:0.7;stroke:#000000;stroke-width:1;stroke-miterlimit:4;stroke-dasharray:none"
         id="rect80136"
         width="69"
         height="28.999998"
         x="0.5"
         y="0.50000024" />
      <g
         aria-label="bpqddq"
         id="g80150"
         style="font-size:16.9333px;line-height:1.25;stroke-width:0.264583">
        <path
           d="m 12.207859,11.901205 q 0.254,-0.152399 0.728132,-0.304799 0.491066,-0.169333 1.083731,-0.169333 0.795865,0 1.422398,0.304799 0.626532,0.3048 1.049864,0.846665 0.440266,0.541866 0.660399,1.303864 0.237066,0.745066 0.237066,1.659464 0,0.948265 -0.270933,1.710263 -0.270933,0.761999 -0.761998,1.303864 -0.491066,0.524932 -1.185331,0.812799 -0.694266,0.287866 -1.540931,0.287866 -0.931331,0 -1.659463,-0.135467 -0.728132,-0.135466 -1.168398,-0.270933 V 7.9726796 l 1.405464,-0.2370662 z m 0,6.349988 q 0.321733,0.08467 0.643466,0.135466 0.321732,0.03387 0.609598,0.03387 1.168398,0 1.828797,-0.711199 0.660399,-0.728132 0.660399,-2.167462 0,-0.609599 -0.118534,-1.134531 -0.118533,-0.541866 -0.372532,-0.914399 -0.254,-0.389465 -0.660399,-0.609598 -0.389466,-0.220133 -0.948265,-0.220133 -0.491065,0 -0.948264,0.203199 -0.4572,0.186267 -0.694266,0.4064 z"
           style="font-family:'Ubuntu Mono';-inkscape-font-specification:'Ubuntu Mono'"
           id="path80138" />
        <path
           d="m 24.416736,15.558798 q 0,-1.371597 -0.643465,-2.116662 -0.643466,-0.761999 -1.676397,-0.761999 -0.575732,0 -0.914398,0.0508 -0.321733,0.0508 -0.507999,0.118533 v 4.961457 q 0.237066,0.220133 0.694265,0.406399 0.457199,0.186266 0.948265,0.186266 0.558799,0 0.948265,-0.220132 0.406399,-0.220133 0.660398,-0.592666 0.254,-0.389466 0.372533,-0.897465 0.118533,-0.524932 0.118533,-1.134531 z m 1.439331,0 q 0,0.897465 -0.237067,1.659463 -0.220132,0.745066 -0.660398,1.286931 -0.423333,0.541866 -1.049865,0.846665 -0.626532,0.3048 -1.422397,0.3048 -0.626532,0 -1.100665,-0.1524 -0.474132,-0.1524 -0.711198,-0.338666 v 3.098794 h -1.405464 v -10.41398 q 0.457199,-0.135466 1.168398,-0.270932 0.728132,-0.135467 1.659463,-0.135467 0.846665,0 1.54093,0.287866 0.694266,0.287866 1.185331,0.829732 0.491066,0.524932 0.761999,1.286931 0.270933,0.761998 0.270933,1.710263 z"
           style="font-family:'Ubuntu Mono';-inkscape-font-specification:'Ubuntu Mono'"
           id="path80140" />
        <path
           d="m 28.650029,15.558798 q 0,0.609599 0.118533,1.134531 0.135466,0.507999 0.389466,0.897465 0.253999,0.372533 0.643465,0.592666 0.406399,0.220132 0.965198,0.220132 0.491066,0 0.948265,-0.186266 0.457199,-0.186266 0.694265,-0.406399 V 12.84947 q -0.186266,-0.06773 -0.524932,-0.118533 -0.321733,-0.0508 -0.897465,-0.0508 -1.032931,0 -1.69333,0.761999 -0.643465,0.745065 -0.643465,2.116662 z m -1.439331,0 q 0,-0.948265 0.270933,-1.710263 0.270933,-0.761999 0.761999,-1.286931 0.491065,-0.541866 1.185331,-0.829732 0.711198,-0.287866 1.557863,-0.287866 0.914398,0 1.608664,0.1524 0.711198,0.135466 1.202264,0.270933 v 10.397046 h -1.405464 v -3.098794 q -0.253999,0.169333 -0.728132,0.321733 -0.474132,0.169333 -1.066798,0.169333 -0.795865,0 -1.422397,-0.3048 -0.626532,-0.304799 -1.066798,-0.846665 -0.423332,-0.541865 -0.660399,-1.286931 -0.237066,-0.761998 -0.237066,-1.659463 z"
           style="font-family:'Ubuntu Mono';-inkscape-font-specification:'Ubuntu Mono'"
           id="path80142" />
        <path
           d="m 40.858906,13.272803 q -0.237067,-0.220133 -0.694266,-0.4064 -0.457199,-0.203199 -0.948265,-0.203199 -0.558798,0 -0.965198,0.220133 -0.389466,0.220133 -0.643465,0.609598 -0.254,0.372533 -0.372533,0.914399 -0.118533,0.524932 -0.118533,1.134531 0,1.371597 0.643466,2.116662 0.643465,0.745065 1.676396,0.745065 0.524933,0 0.880532,-0.0508 0.372533,-0.0508 0.541866,-0.1016 z m 0,-5.3001234 1.405463,-0.2370662 V 19.250257 q -0.457199,0.135467 -1.168397,0.270933 -0.711199,0.135467 -1.659464,0.135467 -0.846665,0 -1.54093,-0.287866 -0.694265,-0.287867 -1.185331,-0.812799 -0.491066,-0.541865 -0.761998,-1.303864 -0.270933,-0.761998 -0.270933,-1.710263 0,-0.914398 0.220133,-1.659464 0.237066,-0.761998 0.677332,-1.303864 0.440265,-0.541865 1.049864,-0.846665 0.626532,-0.304799 1.422397,-0.304799 0.626533,0 1.100665,0.1524 0.474132,0.152399 0.711199,0.321732 z"
           style="font-family:'Ubuntu Mono';-inkscape-font-specification:'Ubuntu Mono'"
           id="path80144" />
        <path
           d="m 49.325523,13.272803 q -0.237066,-0.220133 -0.694265,-0.4064 -0.457199,-0.203199 -0.948265,-0.203199 -0.558799,0 -0.965198,0.220133 -0.389466,0.220133 -0.643465,0.609598 -0.254,0.372533 -0.372533,0.914399 -0.118533,0.524932 -0.118533,1.134531 0,1.371597 0.643465,2.116662 0.643466,0.745065 1.676397,0.745065 0.524932,0 0.880532,-0.0508 0.372532,-0.0508 0.541865,-0.1016 z m 0,-5.3001234 1.405464,-0.2370662 V 19.250257 q -0.457199,0.135467 -1.168398,0.270933 -0.711198,0.135467 -1.659463,0.135467 -0.846665,0 -1.54093,-0.287866 -0.694266,-0.287867 -1.185331,-0.812799 -0.491066,-0.541865 -0.761999,-1.303864 -0.270933,-0.761998 -0.270933,-1.710263 0,-0.914398 0.220133,-1.659464 0.237066,-0.761998 0.677332,-1.303864 0.440266,-0.541865 1.049865,-0.846665 0.626532,-0.304799 1.422397,-0.304799 0.626532,0 1.100665,0.1524 0.474132,0.152399 0.711198,0.321732 z"
           style="font-family:'Ubuntu Mono';-inkscape-font-specification:'Ubuntu Mono'"
           id="path80146" />
        <path
           d="m 54.049881,15.558798 q 0,0.609599 0.118534,1.134531 0.135466,0.507999 0.389465,0.897465 0.254,0.372533 0.643466,0.592666 0.406399,0.220132 0.965198,0.220132 0.491066,0 0.948265,-0.186266 0.457199,-0.186266 0.694265,-0.406399 V 12.84947 q -0.186266,-0.06773 -0.524932,-0.118533 -0.321733,-0.0508 -0.897465,-0.0508 -1.032931,0 -1.69333,0.761999 -0.643466,0.745065 -0.643466,2.116662 z m -1.43933,0 q 0,-0.948265 0.270933,-1.710263 0.270933,-0.761999 0.761998,-1.286931 0.491066,-0.541866 1.185331,-0.829732 0.711199,-0.287866 1.557864,-0.287866 0.914398,0 1.608663,0.1524 0.711199,0.135466 1.202265,0.270933 v 10.397046 h -1.405464 v -3.098794 q -0.254,0.169333 -0.728132,0.321733 -0.474133,0.169333 -1.066798,0.169333 -0.795865,0 -1.422397,-0.3048 -0.626532,-0.304799 -1.066798,-0.846665 -0.423333,-0.541865 -0.660399,-1.286931 -0.237066,-0.761998 -0.237066,-1.659463 z"
           style="font-family:'Ubuntu Mono';-inkscape-font-specification:'Ubuntu Mono'"
           id="path80148" />
      </g>
    </g>
    <path
       style="fill:none;stroke:#000000;stroke-width:1;stroke-linecap:round;stroke-linejoin:round;stroke-miterlimit:4;stroke-dasharray:none;stroke-opacity:1"
       d="m 95,85.500001 v 10 h 15 V 100.5 l 15,-9.999999 -15,-9.999999 v 4.999999 z"
       id="path80292"
       sodipodi:nodetypes="cccccccc" />
    <g
       id="g83659"
       transform="translate(15,4.500001)">
      <rect
         style="fill:#ffffff;fill-opacity:0.7;stroke:#000000;stroke-width:1;stroke-miterlimit:4;stroke-dasharray:none"
         id="rect80294"
         width="69"
         height="28.999998"
         x="0.5"
         y="71.5" />
      <g
         aria-label="dpdq"
         id="text82686"
         style="font-size:16.9333px;line-height:1.25;stroke-width:0.264583">
        <path
           d="m 19.023458,91.020723 c 1.100665,0 2.082796,-0.592665 2.793995,-1.303864 h 0.0508 l 0.135466,1.083732 h 1.269998 V 77.321684 h -1.557864 v 3.539059 l 0.08467,1.574797 c -0.812799,-0.660398 -1.507064,-1.066798 -2.590795,-1.066798 -2.099729,0 -3.979326,1.862663 -3.979326,4.842924 0,3.064928 1.490131,4.809057 3.793059,4.809057 z m 0.338666,-1.303864 c -1.608663,0 -2.539995,-1.303864 -2.539995,-3.522126 0,-2.099729 1.185331,-3.522126 2.658529,-3.522126 0.761998,0 1.473197,0.270932 2.235195,0.965198 v 4.82599 c -0.761998,0.846665 -1.507064,1.253064 -2.353729,1.253064 z"
           id="path83626" />
        <path
           d="m 26.389426,94.678316 h 1.557863 v -3.115727 l -0.0508,-1.608663 c 0.829732,0.694265 1.710264,1.066797 2.539995,1.066797 2.09973,0 3.996259,-1.811863 3.996259,-4.961456 0,-2.844795 -1.286931,-4.690525 -3.657593,-4.690525 -1.066798,0 -2.099729,0.609599 -2.929461,1.303865 h -0.03387 l -0.1524,-1.066798 h -1.269997 z m 3.793059,-4.961457 c -0.609599,0 -1.422397,-0.237066 -2.235196,-0.948264 v -4.842924 c 0.880532,-0.812799 1.676397,-1.253064 2.438395,-1.253064 1.761064,0 2.438396,1.354664 2.438396,3.403593 0,2.269062 -1.117598,3.640659 -2.641595,3.640659 z"
           id="path83628" />
        <path
           d="m 40.020714,91.020723 c 1.100664,0 2.082796,-0.592665 2.793994,-1.303864 h 0.0508 l 0.135467,1.083732 h 1.269997 V 77.321684 h -1.557863 v 3.539059 l 0.08467,1.574797 c -0.812798,-0.660398 -1.507064,-1.066798 -2.590795,-1.066798 -2.099729,0 -3.979325,1.862663 -3.979325,4.842924 0,3.064928 1.49013,4.809057 3.793059,4.809057 z m 0.338666,-1.303864 c -1.608664,0 -2.539995,-1.303864 -2.539995,-3.522126 0,-2.099729 1.185331,-3.522126 2.658528,-3.522126 0.761998,0 1.473197,0.270932 2.235196,0.965198 v 4.82599 c -0.761999,0.846665 -1.507064,1.253064 -2.353729,1.253064 z"
           id="path83630" />
        <path
           d="m 53.211737,94.678316 h 1.557864 V 81.605809 H 53.53347 l -0.1524,0.863598 H 53.3472 c -0.812799,-0.711199 -1.557864,-1.100665 -2.641595,-1.100665 -2.099729,0 -3.979326,1.862663 -3.979326,4.842924 0,3.064928 1.490131,4.809057 3.793059,4.809057 1.066798,0 2.031996,-0.558798 2.777062,-1.28693 l -0.08467,1.676396 z m -2.353729,-4.961457 c -1.608663,0 -2.539995,-1.303864 -2.539995,-3.522126 0,-2.099729 1.185331,-3.522126 2.658529,-3.522126 0.761998,0 1.473197,0.270932 2.235195,0.965198 v 4.82599 c -0.761998,0.846665 -1.507064,1.253064 -2.353729,1.253064 z"
           id="path83632" />
      </g>
    </g>
    <path
       id="path5818"
       style="fill:#80bfff;fill-opacity:0.6;fill-rule:evenodd;stroke:#000000;stroke-width:1;stroke-linecap:round;stroke-linejoin:round"
       d="M 22.090797,101.54216 C 17.483261,100.63784 13.501198,99.466283 10.5,98.023978 v -13.99999 0 c 3.012912,1.693441 6.992112,3.087237 11.591084,4.174386 z" />
    <g
       id="g83779"
       transform="matrix(-1,0,0,1,205,4.500001)">
      <rect
         style="fill:#ffffff;fill-opacity:0.7;stroke:#000000;stroke-width:1;stroke-miterlimit:4;stroke-dasharray:none"
         id="rect83767"
         width="69"
         height="28.999998"
         x="0.5"
         y="71.5" />
      <g
         aria-label="dpdq"
         id="g83777"
         style="font-size:16.9333px;line-height:1.25;stroke-width:0.264583">
        <path
           d="m 19.023458,91.020723 c 1.100665,0 2.082796,-0.592665 2.793995,-1.303864 h 0.0508 l 0.135466,1.083732 h 1.269998 V 77.321684 h -1.557864 v 3.539059 l 0.08467,1.574797 c -0.812799,-0.660398 -1.507064,-1.066798 -2.590795,-1.066798 -2.099729,0 -3.979326,1.862663 -3.979326,4.842924 0,3.064928 1.490131,4.809057 3.793059,4.809057 z m 0.338666,-1.303864 c -1.608663,0 -2.539995,-1.303864 -2.539995,-3.522126 0,-2.099729 1.185331,-3.522126 2.658529,-3.522126 0.761998,0 1.473197,0.270932 2.235195,0.965198 v 4.82599 c -0.761998,0.846665 -1.507064,1.253064 -2.353729,1.253064 z"
           id="path83769" />
        <path
           d="m 26.389426,94.678316 h 1.557863 v -3.115727 l -0.0508,-1.608663 c 0.829732,0.694265 1.710264,1.066797 2.539995,1.066797 2.09973,0 3.996259,-1.811863 3.996259,-4.961456 0,-2.844795 -1.286931,-4.690525 -3.657593,-4.690525 -1.066798,0 -2.099729,0.609599 -2.929461,1.303865 h -0.03387 l -0.1524,-1.066798 h -1.269997 z m 3.793059,-4.961457 c -0.609599,0 -1.422397,-0.237066 -2.235196,-0.948264 v -4.842924 c 0.880532,-0.812799 1.676397,-1.253064 2.438395,-1.253064 1.761064,0 2.438396,1.354664 2.438396,3.403593 0,2.269062 -1.117598,3.640659 -2.641595,3.640659 z"
           id="path83771" />
        <path
           d="m 40.020714,91.020723 c 1.100664,0 2.082796,-0.592665 2.793994,-1.303864 h 0.0508 l 0.135467,1.083732 h 1.269997 V 77.321684 h -1.557863 v 3.539059 l 0.08467,1.574797 c -0.812798,-0.660398 -1.507064,-1.066798 -2.590795,-1.066798 -2.099729,0 -3.979325,1.862663 -3.979325,4.842924 0,3.064928 1.49013,4.809057 3.793059,4.809057 z m 0.338666,-1.303864 c -1.608664,0 -2.539995,-1.303864 -2.539995,-3.522126 0,-2.099729 1.185331,-3.522126 2.658528,-3.522126 0.761998,0 1.473197,0.270932 2.235196,0.965198 v 4.82599 c -0.761999,0.846665 -1.507064,1.253064 -2.353729,1.253064 z"
           id="path83773" />
        <path
           d="m 53.211737,94.678316 h 1.557864 V 81.605809 H 53.53347 l -0.1524,0.863598 H 53.3472 c -0.812799,-0.711199 -1.557864,-1.100665 -2.641595,-1.100665 -2.099729,0 -3.979326,1.862663 -3.979326,4.842924 0,3.064928 1.490131,4.809057 3.793059,4.809057 1.066798,0 2.031996,-0.558798 2.777062,-1.28693 l -0.08467,1.676396 z m -2.353729,-4.961457 c -1.608663,0 -2.539995,-1.303864 -2.539995,-3.522126 0,-2.099729 1.185331,-3.522126 2.658529,-3.522126 0.761998,0 1.473197,0.270932 2.235195,0.965198 v 4.82599 c -0.761998,0.846665 -1.507064,1.253064 -2.353729,1.253064 z"
           id="path83775" />
      </g>
    </g>
    <path
       style="fill:none;stroke:#000000;stroke-width:1;stroke-linecap:round;stroke-linejoin:round;stroke-miterlimit:4;stroke-dasharray:none;stroke-opacity:1"
       d="m 95,135.5 v 10 h 15 v 5 l 15,-10 -15,-10 v 5 z"
       id="path6697"
       sodipodi:nodetypes="cccccccc" />
    <g
       id="g6711"
       transform="translate(15,54.500001)">
      <rect
         style="fill:#ffffff;fill-opacity:0.7;stroke:#000000;stroke-width:1;stroke-miterlimit:4;stroke-dasharray:none"
         id="rect6699"
         width="69"
         height="28.999998"
         x="0.5"
         y="71.5" />
      <g
         aria-label="qdd"
         id="text9157"
         style="font-size:16.9333px;stroke-width:0.264583">
        <path
           d="m 26.965167,94.678316 h 1.557864 V 81.605809 H 27.2869 l -0.1524,0.863598 h -0.03387 c -0.812799,-0.711199 -1.557864,-1.100665 -2.641595,-1.100665 -2.099729,0 -3.979325,1.862663 -3.979325,4.842924 0,3.064928 1.49013,4.809057 3.793059,4.809057 1.066798,0 2.031996,-0.558798 2.777061,-1.28693 l -0.08467,1.676396 z m -2.353728,-4.961457 c -1.608664,0 -2.539995,-1.303864 -2.539995,-3.522126 0,-2.099729 1.185331,-3.522126 2.658528,-3.522126 0.761998,0 1.473197,0.270932 2.235195,0.965198 v 4.82599 c -0.761998,0.846665 -1.507063,1.253064 -2.353728,1.253064 z"
           id="path11987" />
        <path
           d="m 34.7714,91.020723 c 1.100665,0 2.082796,-0.592665 2.793995,-1.303864 h 0.0508 l 0.135466,1.083732 h 1.269998 V 77.321684 h -1.557864 v 3.539059 l 0.08467,1.574797 c -0.812799,-0.660398 -1.507064,-1.066798 -2.590795,-1.066798 -2.099729,0 -3.979326,1.862663 -3.979326,4.842924 0,3.064928 1.490131,4.809057 3.793059,4.809057 z m 0.338666,-1.303864 c -1.608663,0 -2.539995,-1.303864 -2.539995,-3.522126 0,-2.099729 1.185331,-3.522126 2.658529,-3.522126 0.761998,0 1.473197,0.270932 2.235195,0.965198 v 4.82599 c -0.761998,0.846665 -1.507064,1.253064 -2.353729,1.253064 z"
           id="path11989" />
        <path
           d="m 45.270028,91.020723 c 1.100665,0 2.082796,-0.592665 2.793995,-1.303864 h 0.0508 l 0.135466,1.083732 h 1.269997 V 77.321684 h -1.557863 v 3.539059 l 0.08467,1.574797 c -0.812798,-0.660398 -1.507063,-1.066798 -2.590795,-1.066798 -2.099729,0 -3.979325,1.862663 -3.979325,4.842924 0,3.064928 1.49013,4.809057 3.793059,4.809057 z m 0.338666,-1.303864 c -1.608663,0 -2.539995,-1.303864 -2.539995,-3.522126 0,-2.099729 1.185331,-3.522126 2.658528,-3.522126 0.761999,0 1.473197,0.270932 2.235196,0.965198 v 4.82599 c -0.761999,0.846665 -1.507064,1.253064 -2.353729,1.253064 z"
           id="path11991" />
      </g>
    </g>
    <path
       id="path6028"
       style="fill:#80bfff;fill-opacity:0.6;fill-rule:evenodd;stroke:#000000;stroke-width:1;stroke-linecap:round;stroke-linejoin:round"
       d="M 77.908692,88.138272 C 82.398226,87.067627 86.361068,85.698202 89.5,84.023988 v 13.99999 c -3.05711,1.376878 -7.031429,2.513002 -11.590142,3.405072 l -5.925727,-6.268665 z" />
    <g
       id="g13892"
       transform="translate(15,54.500001)">
      <rect
         style="fill:#ffffff;fill-opacity:0.7;stroke:#000000;stroke-width:1;stroke-miterlimit:4;stroke-dasharray:none"
         id="rect13882"
         width="69"
         height="28.999998"
         x="0.5"
         y="71.5" />
      <g
         aria-label="qdd"
         id="g13890"
         style="font-size:16.9333px;stroke-width:0.264583">
        <path
           d="m 26.965167,94.678316 h 1.557864 V 81.605809 H 27.2869 l -0.1524,0.863598 h -0.03387 c -0.812799,-0.711199 -1.557864,-1.100665 -2.641595,-1.100665 -2.099729,0 -3.979325,1.862663 -3.979325,4.842924 0,3.064928 1.49013,4.809057 3.793059,4.809057 1.066798,0 2.031996,-0.558798 2.777061,-1.28693 l -0.08467,1.676396 z m -2.353728,-4.961457 c -1.608664,0 -2.539995,-1.303864 -2.539995,-3.522126 0,-2.099729 1.185331,-3.522126 2.658528,-3.522126 0.761998,0 1.473197,0.270932 2.235195,0.965198 v 4.82599 c -0.761998,0.846665 -1.507063,1.253064 -2.353728,1.253064 z"
           id="path13884" />
        <path
           d="m 34.7714,91.020723 c 1.100665,0 2.082796,-0.592665 2.793995,-1.303864 h 0.0508 l 0.135466,1.083732 h 1.269998 V 77.321684 h -1.557864 v 3.539059 l 0.08467,1.574797 c -0.812799,-0.660398 -1.507064,-1.066798 -2.590795,-1.066798 -2.099729,0 -3.979326,1.862663 -3.979326,4.842924 0,3.064928 1.490131,4.809057 3.793059,4.809057 z m 0.338666,-1.303864 c -1.608663,0 -2.539995,-1.303864 -2.539995,-3.522126 0,-2.099729 1.185331,-3.522126 2.658529,-3.522126 0.761998,0 1.473197,0.270932 2.235195,0.965198 v 4.82599 c -0.761998,0.846665 -1.507064,1.253064 -2.353729,1.253064 z"
           id="path13886" />
        <path
           d="m 45.270028,91.020723 c 1.100665,0 2.082796,-0.592665 2.793995,-1.303864 h 0.0508 l 0.135466,1.083732 h 1.269997 V 77.321684 h -1.557863 v 3.539059 l 0.08467,1.574797 c -0.812798,-0.660398 -1.507063,-1.066798 -2.590795,-1.066798 -2.099729,0 -3.979325,1.862663 -3.979325,4.842924 0,3.064928 1.49013,4.809057 3.793059,4.809057 z m 0.338666,-1.303864 c -1.608663,0 -2.539995,-1.303864 -2.539995,-3.522126 0,-2.099729 1.185331,-3.522126 2.658528,-3.522126 0.761999,0 1.473197,0.270932 2.235196,0.965198 v 4.82599 c -0.761999,0.846665 -1.507064,1.253064 -2.353729,1.253064 z"
           id="path13888" />
      </g>
    </g>
    <g
       id="g14003"
       transform="matrix(1,0,0,-1,135,226.5)">
      <rect
         style="fill:#ffffff;fill-opacity:0.7;stroke:#000000;stroke-width:1;stroke-miterlimit:4;stroke-dasharray:none"
         id="rect13993"
         width="69"
         height="28.999998"
         x="0.5"
         y="71.5" />
      <g
         aria-label="qdd"
         id="g14001"
         style="font-size:16.9333px;stroke-width:0.264583">
        <path
           d="m 26.965167,94.678316 h 1.557864 V 81.605809 H 27.2869 l -0.1524,0.863598 h -0.03387 c -0.812799,-0.711199 -1.557864,-1.100665 -2.641595,-1.100665 -2.099729,0 -3.979325,1.862663 -3.979325,4.842924 0,3.064928 1.49013,4.809057 3.793059,4.809057 1.066798,0 2.031996,-0.558798 2.777061,-1.28693 l -0.08467,1.676396 z m -2.353728,-4.961457 c -1.608664,0 -2.539995,-1.303864 -2.539995,-3.522126 0,-2.099729 1.185331,-3.522126 2.658528,-3.522126 0.761998,0 1.473197,0.270932 2.235195,0.965198 v 4.82599 c -0.761998,0.846665 -1.507063,1.253064 -2.353728,1.253064 z"
           id="path13995" />
        <path
           d="m 34.7714,91.020723 c 1.100665,0 2.082796,-0.592665 2.793995,-1.303864 h 0.0508 l 0.135466,1.083732 h 1.269998 V 77.321684 h -1.557864 v 3.539059 l 0.08467,1.574797 c -0.812799,-0.660398 -1.507064,-1.066798 -2.590795,-1.066798 -2.099729,0 -3.979326,1.862663 -3.979326,4.842924 0,3.064928 1.490131,4.809057 3.793059,4.809057 z m 0.338666,-1.303864 c -1.608663,0 -2.539995,-1.303864 -2.539995,-3.522126 0,-2.099729 1.185331,-3.522126 2.658529,-3.522126 0.761998,0 1.473197,0.270932 2.235195,0.965198 v 4.82599 c -0.761998,0.846665 -1.507064,1.253064 -2.353729,1.253064 z"
           id="path13997" />
        <path
           d="m 45.270028,91.020723 c 1.100665,0 2.082796,-0.592665 2.793995,-1.303864 h 0.0508 l 0.135466,1.083732 h 1.269997 V 77.321684 h -1.557863 v 3.539059 l 0.08467,1.574797 c -0.812798,-0.660398 -1.507063,-1.066798 -2.590795,-1.066798 -2.099729,0 -3.979325,1.862663 -3.979325,4.842924 0,3.064928 1.49013,4.809057 3.793059,4.809057 z m 0.338666,-1.303864 c -1.608663,0 -2.539995,-1.303864 -2.539995,-3.522126 0,-2.099729 1.185331,-3.522126 2.658528,-3.522126 0.761999,0 1.473197,0.270932 2.235196,0.965198 v 4.82599 c -0.761999,0.846665 -1.507064,1.253064 -2.353729,1.253064 z"
           id="path13999" />
      </g>
    </g>
    <path
       id="path12814"
       style="fill:#80bfff;fill-opacity:0.6;fill-rule:evenodd;stroke:#000000;stroke-width:1;stroke-linecap:round;stroke-linejoin:round"
       d="M 45.03968,128.35568 C 43.749061,125.31466 41.942943,122.73465 39.647739,121 v 0 h 18.999997 c 2.238502,1.56648 3.980422,4.17996 5.196195,7.35528 l -8.23696,4.49829 z" />
    <path
       id="path13176"
       style="fill:#80bfff;fill-opacity:0.6;fill-rule:evenodd;stroke:#000000;stroke-width:1;stroke-linecap:round;stroke-linejoin:round"
       d="m 45.17139,152.64459 c -1.277387,3.00539 -3.110315,5.57787 -5.523651,7.35541 h 18.999997 c 2.238803,-1.74144 3.942551,-4.32311 5.134962,-7.35574 z" />
  </g>
</svg>
