<?xml version="1.0" encoding="UTF-8" standalone="no"?>
<!-- Created with Inkscape (http://www.inkscape.org/) -->

<svg
   width="340mm"
   height="80mm"
   viewBox="0 0 340 80"
   version="1.1"
   id="svg5"
   inkscape:version="1.1.2 (0a00cf5339, 2022-02-04)"
   sodipodi:docname="drawing.svg"
   inkscape:export-filename="/media/littlecube/Data/TFCIS/2023Pre/pC/statement/drawing.jpg"
   inkscape:export-xdpi="300"
   inkscape:export-ydpi="300"
   xmlns:inkscape="http://www.inkscape.org/namespaces/inkscape"
   xmlns:sodipodi="http://sodipodi.sourceforge.net/DTD/sodipodi-0.dtd"
   xmlns="http://www.w3.org/2000/svg"
   xmlns:svg="http://www.w3.org/2000/svg">
  <sodipodi:namedview
     id="namedview7"
     pagecolor="#ffffff"
     bordercolor="#666666"
     borderopacity="1.0"
     inkscape:pageshadow="2"
     inkscape:pageopacity="0.0"
     inkscape:pagecheckerboard="0"
     inkscape:document-units="mm"
     showgrid="false"
     inkscape:zoom="0.75187992"
     inkscape:cx="721.52479"
     inkscape:cy="232.08493"
     inkscape:window-width="1858"
     inkscape:window-height="1016"
     inkscape:window-x="62"
     inkscape:window-y="27"
     inkscape:window-maximized="1"
     inkscape:current-layer="layer1"
     height="50mm" />
  <defs
     id="defs2">
    <rect
       x="360.72797"
       y="-124.01832"
       width="212.9989"
       height="81.861214"
       id="rect8241" />
    <rect
       x="360.72797"
       y="-124.01832"
       width="212.9989"
       height="81.861214"
       id="rect12765" />
  </defs>
  <g
     inkscape:label="Layer 1"
     inkscape:groupmode="layer"
     id="layer1">
    <path
       id="rect31"
       style="fill:#007e20;fill-opacity:0.5;fill-rule:evenodd;stroke:#000000;stroke-width:2"
       d="M 1,1 H 21 V 21.000003 H 1 Z" />
    <path
       id="rect31-7"
       style="fill:#ffffff;fill-opacity:0.5;fill-rule:evenodd;stroke:#000000;stroke-width:2"
       d="M 21,1 H 41 V 21.000003 H 21 Z" />
    <path
       id="rect31-5"
       style="fill:none;fill-rule:evenodd;stroke:#000000;stroke-width:2"
       d="M 41,1 H 61 V 21.000003 H 41 Z" />
    <path
       id="rect31-3"
       style="fill:none;fill-rule:evenodd;stroke:#000000;stroke-width:2"
       d="M 61,1 H 81.000001 V 21.000003 H 61 Z" />
    <path
       id="rect31-56"
       style="fill:none;fill-rule:evenodd;stroke:#000000;stroke-width:2"
       d="M 81.000001,1 H 101 V 21.000003 H 81.000001 Z" />
    <path
       id="rect31-1"
       style="fill:#007e20;fill-opacity:0.5;fill-rule:evenodd;stroke:#000000;stroke-width:2"
       d="m 1,21.000003 h 20 v 20 H 1 Z" />
    <path
       id="rect31-7-2"
       style="fill:none;fill-rule:evenodd;stroke:#000000;stroke-width:2"
       d="m 21,21.000003 h 20 v 20 H 21 Z" />
    <path
       id="rect31-5-7"
       style="fill:none;fill-rule:evenodd;stroke:#000000;stroke-width:2"
       d="m 41,21.000003 h 20 v 20 H 41 Z" />
    <path
       id="rect31-3-0"
       style="fill:none;fill-rule:evenodd;stroke:#000000;stroke-width:2"
       d="m 61,21.000003 h 20.000001 v 20 H 61 Z" />
    <path
       id="rect31-56-9"
       style="fill:none;fill-rule:evenodd;stroke:#000000;stroke-width:2"
       d="M 81.000001,21.000003 H 101 v 20 H 81.000001 Z" />
    <path
       id="rect31-0"
       style="fill:#007e20;fill-opacity:0.5;fill-rule:evenodd;stroke:#000000;stroke-width:2"
       d="m 1,41.000003 h 20 v 20 H 1 Z" />
    <path
       id="rect31-7-6"
       style="fill:#007e20;fill-opacity:0.5;fill-rule:evenodd;stroke:#000000;stroke-width:2"
       d="m 21,41.000003 h 20 v 20 H 21 Z" />
    <path
       id="rect31-5-2"
       style="fill:#007e20;fill-opacity:0.5;fill-rule:evenodd;stroke:#000000;stroke-width:2"
       d="m 41,41.000003 h 20 v 20 H 41 Z" />
    <path
       id="rect31-3-6"
       style="fill:none;fill-rule:evenodd;stroke:#000000;stroke-width:2"
       d="m 61,41.000003 h 20.000001 v 20 H 61 Z" />
    <path
       id="rect31-56-1"
       style="fill:none;fill-rule:evenodd;stroke:#000000;stroke-width:2"
       d="M 81.000001,41.000003 H 101 v 20 H 81.000001 Z" />
    <path
       id="rect31-9"
       style="fill:none;fill-rule:evenodd;stroke:#000000;stroke-width:2"
       d="m 1,61.000003 h 20 v 20 H 1 Z" />
    <path
       id="rect31-7-20"
       style="fill:#007e20;fill-opacity:0.5;fill-rule:evenodd;stroke:#000000;stroke-width:2"
       d="m 21,61.000003 h 20 v 20 H 21 Z" />
    <path
       id="rect31-5-23"
       style="fill:#007e20;fill-opacity:0.5;fill-rule:evenodd;stroke:#000000;stroke-width:2"
       d="m 41,61.000003 h 20 v 20 H 41 Z" />
    <path
       id="rect31-3-7"
       style="fill:#007e20;fill-opacity:0.5;fill-rule:evenodd;stroke:#000000;stroke-width:2"
       d="m 61,61.000003 h 20.000001 v 20 H 61 Z" />
    <path
       id="rect31-56-5"
       style="fill:#007e20;fill-opacity:0.5;fill-rule:evenodd;stroke:#000000;stroke-width:2"
       d="M 81.000001,61.000003 H 101 v 20 H 81.000001 Z" />
    <path
       id="path5001"
       style="fill:#007e20;fill-opacity:0.5;fill-rule:evenodd;stroke:#000000;stroke-width:2"
       d="m 121,1 h 20 v 20.000003 h -20 z" />
    <path
       id="path5003"
       style="fill:#ffffff;fill-opacity:0.5;fill-rule:evenodd;stroke:#000000;stroke-width:2"
       d="m 141,1 h 20 v 20.000003 h -20 z" />
    <path
       id="path5005"
       style="fill:none;fill-rule:evenodd;stroke:#000000;stroke-width:2"
       d="m 161,1 h 20 v 20.000003 h -20 z" />
    <path
       id="path5007"
       style="fill:none;fill-rule:evenodd;stroke:#000000;stroke-width:2"
       d="m 181,1 h 20 v 20.000003 h -20 z" />
    <path
       id="path5009"
       style="fill:none;fill-rule:evenodd;stroke:#000000;stroke-width:2"
       d="m 201,1 h 20 v 20.000003 h -20 z" />
    <path
       id="path5011"
       style="fill:#007e20;fill-opacity:0.5;fill-rule:evenodd;stroke:#000000;stroke-width:2"
       d="m 121,21.000003 h 20 v 20 h -20 z" />
    <path
       id="path5013"
       style="fill:#007e20;fill-opacity:0.5;fill-rule:evenodd;stroke:#000000;stroke-width:2"
       d="m 141,21.000003 h 20 v 20 h -20 z" />
    <path
       id="path5015"
       style="fill:#007e20;fill-opacity:0.5;fill-rule:evenodd;stroke:#000000;stroke-width:2"
       d="m 161,21.000003 h 20 v 20 h -20 z" />
    <path
       id="path5017"
       style="fill:none;fill-rule:evenodd;stroke:#000000;stroke-width:2"
       d="m 181,21.000003 h 20 v 20 h -20 z" />
    <path
       id="path5019"
       style="fill:none;fill-rule:evenodd;stroke:#000000;stroke-width:2"
       d="m 201,21.000003 h 20 v 20 h -20 z" />
    <path
       id="path5021"
       style="fill:#007e20;fill-opacity:0.5;fill-rule:evenodd;stroke:#000000;stroke-width:2"
       d="m 121,41.000003 h 20 v 20 h -20 z" />
    <path
       id="path5023"
       style="fill:#ffffff;fill-opacity:0.5;fill-rule:evenodd;stroke:#000000;stroke-width:2"
       d="m 141,41.000003 h 20 v 20 h -20 z" />
    <path
       id="path5025"
       style="fill:#007e20;fill-opacity:0.5;fill-rule:evenodd;stroke:#000000;stroke-width:2"
       d="m 161,41.000003 h 20 v 20 h -20 z" />
    <path
       id="path5027"
       style="fill:none;fill-rule:evenodd;stroke:#000000;stroke-width:2"
       d="m 181,41.000003 h 20 v 20 h -20 z" />
    <path
       id="path5029"
       style="fill:none;fill-rule:evenodd;stroke:#000000;stroke-width:2"
       d="m 201,41.000003 h 20 v 20 h -20 z" />
    <path
       id="path5031"
       style="fill:#007e20;fill-opacity:0.5;fill-rule:evenodd;stroke:#000000;stroke-width:2"
       d="m 121,61.000003 h 20 v 20 h -20 z" />
    <path
       id="path5033"
       style="fill:#007e20;fill-opacity:0.5;fill-rule:evenodd;stroke:#000000;stroke-width:2"
       d="m 141,61.000003 h 20 v 20 h -20 z" />
    <path
       id="path5035"
       style="fill:#007e20;fill-opacity:0.5;fill-rule:evenodd;stroke:#000000;stroke-width:2"
       d="m 161,61.000003 h 20 v 20 h -20 z" />
    <path
       id="path5037"
       style="fill:#007e20;fill-opacity:0.5;fill-rule:evenodd;stroke:#000000;stroke-width:2"
       d="m 181,61.000003 h 20 v 20 h -20 z" />
    <path
       id="path5039"
       style="fill:#007e20;fill-opacity:0.5;fill-rule:evenodd;stroke:#000000;stroke-width:2"
       d="m 201,61.000003 h 20 v 20 h -20 z" />
    <path
       id="path5543"
       style="fill:none;fill-opacity:0.5;fill-rule:evenodd;stroke:#000000;stroke-width:2"
       d="m 241,1 h 20 v 20.000003 h -20 z" />
    <path
       id="path5545"
       style="fill:#ffffff;fill-opacity:0.5;fill-rule:evenodd;stroke:#000000;stroke-width:2"
       d="m 261,1 h 20 v 20.000003 h -20 z" />
    <path
       id="path5547"
       style="fill:none;fill-rule:evenodd;stroke:#000000;stroke-width:2"
       d="m 281,1 h 20 v 20.000003 h -20 z" />
    <path
       id="path5549"
       style="fill:none;fill-rule:evenodd;stroke:#000000;stroke-width:2"
       d="m 301,1 h 20 v 20.000003 h -20 z" />
    <path
       id="path5551"
       style="fill:none;fill-rule:evenodd;stroke:#000000;stroke-width:2"
       d="m 321,1 h 20 v 20.000003 h -20 z" />
    <path
       id="path5553"
       style="fill:#007e20;fill-opacity:0.5;fill-rule:evenodd;stroke:#000000;stroke-width:2"
       d="m 241,21.000003 h 20 v 20 h -20 z" />
    <path
       id="path5555"
       style="fill:#007e20;fill-opacity:0.5;fill-rule:evenodd;stroke:#000000;stroke-width:2"
       d="m 261,21.000003 h 20 v 20 h -20 z" />
    <path
       id="path5557"
       style="fill:#007e20;fill-opacity:0.5;fill-rule:evenodd;stroke:#000000;stroke-width:2"
       d="m 281,21.000003 h 20 v 20 h -20 z" />
    <path
       id="path5559"
       style="fill:#007e20;fill-opacity:0.5;fill-rule:evenodd;stroke:#000000;stroke-width:2"
       d="m 301,21.000003 h 20 v 20 h -20 z" />
    <path
       id="path5561"
       style="fill:#007e20;fill-opacity:0.5;fill-rule:evenodd;stroke:#000000;stroke-width:2"
       d="m 321,21.000003 h 20 v 20 h -20 z" />
    <path
       id="path5563"
       style="fill:#ffffff;fill-opacity:0.5;fill-rule:evenodd;stroke:#000000;stroke-width:2"
       d="m 241,41.000003 h 20 v 20 h -20 z" />
    <path
       id="path5565"
       style="fill:#ffffff;fill-opacity:0.5;fill-rule:evenodd;stroke:#000000;stroke-width:2"
       d="m 261,41.000003 h 20 v 20 h -20 z" />
    <path
       id="path5567"
       style="fill:#ffffff;fill-opacity:0.5;fill-rule:evenodd;stroke:#000000;stroke-width:2"
       d="m 281,41.000003 h 20 v 20 h -20 z" />
    <path
       id="path5569"
       style="fill:none;fill-rule:evenodd;stroke:#000000;stroke-width:2"
       d="m 301,41.000003 h 20 v 20 h -20 z" />
    <path
       id="path5571"
       style="fill:#007e20;fill-opacity:0.5;fill-rule:evenodd;stroke:#000000;stroke-width:2"
       d="m 321,41.000003 h 20 v 20 h -20 z" />
    <path
       id="path5573"
       style="fill:#ffffff;fill-opacity:0.5;fill-rule:evenodd;stroke:#000000;stroke-width:2"
       d="m 241,61.000003 h 20 v 20 h -20 z" />
    <path
       id="path5575"
       style="fill:#ffffff;fill-opacity:0.5;fill-rule:evenodd;stroke:#000000;stroke-width:2"
       d="m 261,61.000003 h 20 v 20 h -20 z" />
    <path
       id="path5577"
       style="fill:#ffffff;fill-opacity:0.5;fill-rule:evenodd;stroke:#000000;stroke-width:2"
       d="m 281,61.000003 h 20 v 20 h -20 z" />
    <path
       id="path5579"
       style="fill:#ffffff;fill-opacity:0.5;fill-rule:evenodd;stroke:#000000;stroke-width:2"
       d="m 301,61.000003 h 20 v 20 h -20 z" />
    <path
       id="path5581"
       style="fill:#007e20;fill-opacity:0.5;fill-rule:evenodd;stroke:#000000;stroke-width:2"
       d="m 321,61.000003 h 20 v 20 h -20 z" />
    <g
       aria-label="A"
       transform="matrix(0.26458333,0,0,0.26458333,52.339915,57.055529)"
       id="text8239"
       style="font-size:40px;line-height:1.25;white-space:pre;shape-inside:url(#rect8241)">
      <path
         d="m 360.88852,-83.817578 h 3.72 l 2.84,-8.96 h 10.72 l 2.8,8.96 h 3.92 l -9.96,-29.320002 h -4.12 z m 7.48,-11.88 1.44,-4.520002 c 1.04,-3.32 2,-6.48 2.92,-9.92 h 0.16 c 0.96,3.4 1.88,6.6 2.96,9.92 l 1.4,4.520002 z"
         id="path16340" />
    </g>
    <g
       aria-label="B"
       transform="matrix(0.26458333,0,0,0.26458333,51.78429,97.055529)"
       id="text12763"
       style="font-size:40px;line-height:1.25;white-space:pre;shape-inside:url(#rect12765)">
      <path
         d="m 364.76852,-83.817578 h 9.32 c 6.56,0 11.12,-2.84 11.12,-8.6 0,-4 -2.48,-6.32 -5.96,-7 v -0.2 c 2.76,-0.880002 4.28,-3.440002 4.28,-6.360002 0,-5.16 -4.16,-7.16 -10.08,-7.16 h -8.68 z m 3.68,-16.880002 v -9.52 h 4.52 c 4.6,0 6.92,1.28 6.92,4.72 0,3 -2.04,4.8 -7.08,4.8 z m 0,13.920002 v -11.04 h 5.12 c 5.16,0 8,1.64 8,5.28 0,3.96 -2.96,5.76 -8,5.76 z"
         id="path16343" />
    </g>
  </g>
</svg>
